<svg id="Capa_1" data-name="Capa 1" xmlns="http://www.w3.org/2000/svg" viewBox="0 0 488.99 512"><defs><style>.cls-1{fill:#fff;}</style></defs><title>sun-solid</title><path class="cls-1" d="M274.83,12.65,300.35,75a18,18,0,0,0,26.13,8.49L383.8,48.05c15.49-9.59,34.81,4.45,30.48,22.14l-16,65.48A18,18,0,0,0,414.4,157.9l67.22,5c18.17,1.35,25.55,24.05,11.64,35.82l-51.45,43.55a18,18,0,0,0,0,27.48l51.45,43.55c13.91,11.77,6.53,34.47-11.64,35.82l-67.22,5a18,18,0,0,0-16.15,22.23l16,65.48c4.33,17.69-15,31.73-30.48,22.14l-57.31-35.48A18,18,0,0,0,300.35,437l-25.51,62.39c-6.9,16.87-30.78,16.87-37.67,0L211.65,437a18,18,0,0,0-26.13-8.49L128.2,464c-15.49,9.59-34.81-4.45-30.48-22.14l16-65.48A18,18,0,0,0,97.6,354.1l-67.22-5c-18.17-1.35-25.55-24.05-11.64-35.82l51.45-43.55a18,18,0,0,0,0-27.48L18.74,198.71c-13.91-11.77-6.53-34.48,11.64-35.82l67.22-5a18,18,0,0,0,16.15-22.23l-16-65.48c-4.33-17.69,15-31.73,30.48-22.14l57.31,35.48A18,18,0,0,0,211.65,75l25.52-62.39c6.89-16.87,30.77-16.87,37.67,0ZM392,256c0-75-61-136-136-136S120,181,120,256s61,136,136,136S392,331,392,256Zm-32,0A104,104,0,1,1,256,152,104.11,104.11,0,0,1,360,256Z" transform="translate(-11.5 0)"/></svg>