<svg id="Capa_1" data-name="Capa 1" xmlns="http://www.w3.org/2000/svg" viewBox="0 0 1366 768"><defs><style>.cls-1{fill:#00f4c5;}.cls-2{fill:#fff;}</style></defs><title>Cumpleaños</title><rect class="cls-1" width="1366" height="768"/><path class="cls-2" d="M675.35,404.8c-11.91,0-13.28-13.6-31.66-13.6s-19.89,13.6-31.76,13.6-13.36-13.6-31.76-13.6c-18.2,0-20.06,13.6-31.65,13.6-12,0-13.26-13.6-31.76-13.6S496.94,404.8,485,404.8v-34a20.4,20.4,0,0,1,20.39-20.4h6.8V289.23h27.19v61.18h27.2V289.23h27.19v61.18H621V289.23h27.19v61.18H655a20.41,20.41,0,0,1,20.4,20.4Zm0,54.38H485V418.39c18.42,0,19.87-13.59,31.76-13.59s13.28,13.59,31.76,13.59c18.2,0,20.06-13.59,31.65-13.59,12,0,13.26,13.59,31.76,13.59s19.87-13.59,31.76-13.59c11.68,0,13.28,13.59,31.66,13.59ZM525.79,282.43a13.56,13.56,0,0,1-13.6-13.6c0-13.17,13.6-9.77,13.6-27.19,5.1,0,13.59,12.54,13.59,23.8S533.33,282.43,525.79,282.43Zm54.38,0a13.55,13.55,0,0,1-13.59-13.6c0-13.17,13.59-9.77,13.59-27.19,5.1,0,13.6,12.54,13.6,23.8S587.72,282.43,580.17,282.43Zm54.39,0a13.56,13.56,0,0,1-13.6-13.6c0-13.17,13.6-9.77,13.6-27.19,5.1,0,13.59,12.54,13.59,23.8S642.1,282.43,634.56,282.43Z"/><path class="cls-2" d="M789.29,261.88a34.88,34.88,0,1,1,34.88,34.87A34.88,34.88,0,0,1,789.29,261.88Zm123.34.66a15.51,15.51,0,0,0-21.92,0l-42,42H799.59l-42-42a15.5,15.5,0,0,0-21.92,21.92l45.83,45.83V459.5A15.5,15.5,0,0,0,797,475h7.75a15.49,15.49,0,0,0,15.5-15.5V405.25H828V459.5a15.5,15.5,0,0,0,15.5,15.5h7.75a15.49,15.49,0,0,0,15.5-15.5V330.29l45.84-45.83A15.51,15.51,0,0,0,912.63,262.54Z"/></svg>