<svg id="Capa_1" data-name="Capa 1" xmlns="http://www.w3.org/2000/svg" viewBox="0 0 1366 768"><defs><style>.cls-1{fill:#eac011;}.cls-2{fill:#fff;}.cls-3{font-size:53.78px;}.cls-29,.cls-3,.cls-30,.cls-31,.cls-32,.cls-33,.cls-34,.cls-35,.cls-36,.cls-37,.cls-38,.cls-39,.cls-40{font-family:Bebas, Bebas;}.cls-21,.cls-22,.cls-23,.cls-24,.cls-25,.cls-26,.cls-27,.cls-36,.cls-37,.cls-38,.cls-39,.cls-4,.cls-5{fill:#0071bc;}.cls-4{letter-spacing:0.02em;}.cls-10,.cls-5{letter-spacing:0em;}.cls-6{letter-spacing:0.03em;}.cls-7{letter-spacing:0.02em;}.cls-8{letter-spacing:0.03em;}.cls-9{letter-spacing:0.02em;}.cls-11,.cls-27{letter-spacing:0.02em;}.cls-12{letter-spacing:0.02em;}.cls-13{letter-spacing:0.02em;}.cls-14{letter-spacing:0.03em;}.cls-15{letter-spacing:0em;}.cls-16{letter-spacing:0.02em;}.cls-17{letter-spacing:0.02em;}.cls-18{letter-spacing:0.03em;}.cls-19,.cls-21{letter-spacing:0.02em;}.cls-20,.cls-26{letter-spacing:-0.11em;}.cls-22{letter-spacing:0.03em;}.cls-23{letter-spacing:0.02em;}.cls-24{letter-spacing:-0.05em;}.cls-28{font-size:91.42px;font-family:MyriadPro-Regular, Myriad Pro;}.cls-29{letter-spacing:0.02em;}.cls-31{letter-spacing:0.02em;}.cls-32{letter-spacing:0.02em;}.cls-33,.cls-38{letter-spacing:0.02em;}.cls-34{letter-spacing:-0.1em;}.cls-35{letter-spacing:0em;}.cls-36{letter-spacing:0.02em;}.cls-37{letter-spacing:0.03em;}.cls-40{letter-spacing:0em;}</style></defs><title>Register</title><rect class="cls-1" width="1366" height="768"/><path class="cls-2" d="M489.14,332.29a53.43,53.43,0,1,0-53.43-53.43A53.48,53.48,0,0,0,489.14,332.29Zm374,0a53.43,53.43,0,1,0-53.43-53.43A53.48,53.48,0,0,0,863.14,332.29ZM889.86,359H836.43a53.27,53.27,0,0,0-37.65,15.53,122.1,122.1,0,0,1,62.69,91.33h55.1a26.69,26.69,0,0,0,26.72-26.72V412.43A53.48,53.48,0,0,0,889.86,359Zm-213.72,0a93.5,93.5,0,1,0-93.5-93.5A93.45,93.45,0,0,0,676.14,359Zm64.12,26.71h-6.93a129.06,129.06,0,0,1-114.37,0H612a96.2,96.2,0,0,0-96.17,96.18v24A40.08,40.08,0,0,0,555.93,546H796.36a40.08,40.08,0,0,0,40.07-40.07v-24A96.2,96.2,0,0,0,740.26,385.71ZM553.51,374.53A53.29,53.29,0,0,0,515.86,359H462.43A53.48,53.48,0,0,0,409,412.43v26.71a26.69,26.69,0,0,0,26.71,26.72h55a122.41,122.41,0,0,1,62.78-91.33Z"/><text class="cls-3" transform="translate(37.52 97.52) rotate(-5.34)"><tspan class="cls-4">2</tspan><tspan class="cls-5" x="29.49" y="0">0 % </tspan><tspan class="cls-6" x="105.46" y="0">D</tspan><tspan x="134.47" y="0" xml:space="preserve">e  </tspan><tspan class="cls-6" x="169.92" y="0">d</tspan><tspan x="198.94" y="0">e</tspan><tspan class="cls-7" x="224.46" y="0">sc</tspan><tspan class="cls-8" x="282.96" y="0">u</tspan><tspan x="312.24" y="0">e</tspan><tspan class="cls-9" x="337.77" y="0">n</tspan><tspan class="cls-10" x="368.46" y="0">to</tspan><tspan class="cls-11" x="-23.62" y="64.53">A</tspan><tspan x="8.55" y="64.53">L </tspan><tspan class="cls-11" x="38.14" y="64.53">A</tspan><tspan class="cls-12" x="70.31" y="64.53">B</tspan><tspan class="cls-13" x="100.9" y="64.53">R</tspan><tspan class="cls-14" x="131.31" y="64.53">I</tspan><tspan class="cls-15" x="144.99" y="64.53">R </tspan><tspan class="cls-8" x="179.12" y="64.53">U</tspan><tspan class="cls-16" x="208.4" y="64.53">N</tspan><tspan x="239.34" y="64.53">A </tspan><tspan class="cls-17" x="275.36" y="64.53">C</tspan><tspan class="cls-18" x="304.12" y="64.53">U</tspan><tspan x="333.4" y="64.53">E</tspan><tspan class="cls-19" x="358.92" y="64.53">N</tspan><tspan class="cls-20" x="389.61" y="64.53">T</tspan><tspan class="cls-15" x="411.38" y="64.53">A </tspan><tspan x="76.66" y="129.07">EN </tspan><tspan class="cls-21" x="137.01" y="129.07">T</tspan><tspan class="cls-22" x="165.34" y="129.07">I</tspan><tspan class="cls-23" x="178.94" y="129.07">C</tspan><tspan class="cls-24" x="207.72" y="129.07">K</tspan><tspan class="cls-25" x="235.19" y="129.07">S</tspan><tspan class="cls-26" x="264.02" y="129.07">T</tspan><tspan class="cls-27" x="285.79" y="129.07">A</tspan><tspan class="cls-25" x="317.95" y="129.07">R</tspan></text><text class="cls-28" transform="translate(599.94 728.72) rotate(-9.18)">ยก<tspan class="cls-29" x="21.03" y="0">R</tspan><tspan class="cls-30" x="72.72" y="0">E</tspan><tspan class="cls-31" x="116.11" y="0">G</tspan><tspan class="cls-32" x="165.61" y="0">I</tspan><tspan class="cls-30" x="188.16" y="0">S</tspan><tspan class="cls-33" x="237.17" y="0">TR</tspan><tspan class="cls-34" x="336.36" y="0">A</tspan><tspan class="cls-33" x="379.57" y="0">T</tspan><tspan class="cls-35" x="427.74" y="0">E </tspan><tspan class="cls-36" x="479.56" y="0">A</tspan><tspan class="cls-37" x="534.25" y="0">HO</tspan><tspan class="cls-38" x="634.19" y="0">R</tspan><tspan class="cls-39" x="685.22" y="0">A</tspan><tspan class="cls-40" x="738.03" y="0">!</tspan></text></svg>